<?xml version="1.0" encoding="utf-8"?>
<!-- Generator: Adobe Illustrator 27.0.0, SVG Export Plug-In . SVG Version: 6.00 Build 0)  -->
<svg version="1.1" id="Layer_1" xmlns="http://www.w3.org/2000/svg" xmlns:xlink="http://www.w3.org/1999/xlink" x="0px" y="0px"
	 viewBox="0 0 100 100" style="enable-background:new 0 0 100 100;" xml:space="preserve">
<style type="text/css">
	.st0{fill:#FEFEFE;}
	.st1{fill:#C83BC8;}
</style>
<g>
	<path class="st0" d="M21,77.44c0-20.48,0-40.96,0-61.44c20.48,0,40.96,0,61.44,0c0,20.48,0,40.96,0,61.44
		C61.96,77.44,41.48,77.44,21,77.44z M55.83,36.43c0.12-0.05,0.25-0.1,0.37-0.15c0.14,0.23,0.34,0.45,0.42,0.7
		c0.26,0.82,0.49,1.64,0.72,2.47c0.78,2.82,1.54,5.65,2.35,8.45c0.36,1.24,1.32,1.7,2.47,1.29c0.74-0.26,1.25-1.45,1.01-2.39
		c-0.35-1.36-0.68-2.73-1.06-4.08c-0.85-3-1.65-6.02-2.63-8.98c-0.77-2.32-2.69-3.91-5.43-3.89c-1.59,0.01-3.19,0.05-4.78-0.01
		c-2.59-0.09-4.83,1.52-5.57,4.04c-0.95,3.22-1.93,6.43-2.83,9.66c-0.35,1.27-0.58,2.59-0.72,3.91c-0.1,0.95,0.41,1.63,1.05,1.76
		c1.09,0.23,1.81-0.08,2.28-1.01c0.19-0.38,0.35-0.79,0.45-1.2c0.83-3.13,1.64-6.27,2.48-9.39c0.12-0.46,0.36-0.88,0.55-1.32
		c0.12,0.04,0.23,0.08,0.35,0.12c-1.78,6.69-3.56,13.38-5.39,20.24c1.83,0,3.44,0,5.13,0c0,0.52,0,0.91,0,1.3c0,4.5,0,9,0,13.5
		c0,0.78,0.18,1.46,0.84,1.95c0.75,0.55,1.48,0.53,2.31,0.08c0.81-0.43,0.92-1.08,0.92-1.87c-0.01-4.74,0-9.48,0-14.22
		c0-0.23,0.04-0.46,0.07-0.74c0.31,0.02,0.57,0.04,0.88,0.06c0,0.48,0,0.88,0,1.27c0,4.38,0,8.76,0,13.14
		c0,0.28-0.02,0.56,0.01,0.84c0.11,0.93,0.92,1.76,1.82,1.88c0.87,0.11,1.71-0.47,2.01-1.46c0.13-0.44,0.22-0.92,0.22-1.38
		c0.02-4.34,0.01-8.68,0.01-13.02c0-0.42,0-0.84,0-1.39c1.76,0,3.37,0,5.16,0C59.45,49.76,57.64,43.1,55.83,36.43z M56.14,24.52
		c-0.03-2.7-1.98-4.71-4.47-4.64c-2.81,0.07-4.53,1.72-4.57,4.63c-0.04,2.83,2.1,4.58,4.5,4.62C54.05,29.19,56.14,27.03,56.14,24.52
		z"/>
	<path class="st1" d="M55.83,36.43c1.81,6.67,3.62,13.33,5.47,20.16c-1.79,0-3.4,0-5.16,0c0,0.55,0,0.97,0,1.39
		c0,4.34,0.01,8.68-0.01,13.02c0,0.46-0.08,0.94-0.22,1.38c-0.3,0.99-1.14,1.57-2.01,1.46c-0.9-0.12-1.71-0.95-1.82-1.88
		c-0.03-0.28-0.01-0.56-0.01-0.84c0-4.38,0-8.76,0-13.14c0-0.39,0-0.79,0-1.27c-0.32-0.02-0.57-0.04-0.88-0.06
		c-0.03,0.28-0.07,0.51-0.07,0.74c0,4.74-0.01,9.48,0,14.22c0,0.79-0.11,1.44-0.92,1.87c-0.83,0.44-1.56,0.47-2.31-0.08
		c-0.66-0.49-0.84-1.17-0.84-1.95c0.01-4.5,0-9,0-13.5c0-0.39,0-0.78,0-1.3c-1.69,0-3.3,0-5.13,0c1.83-6.86,3.61-13.55,5.39-20.24
		c-0.12-0.04-0.23-0.08-0.35-0.12c-0.19,0.44-0.43,0.86-0.55,1.32c-0.84,3.13-1.65,6.26-2.48,9.39c-0.11,0.41-0.26,0.82-0.45,1.2
		c-0.47,0.93-1.19,1.23-2.28,1.01c-0.64-0.13-1.15-0.82-1.05-1.76c0.14-1.31,0.37-2.63,0.72-3.91c0.89-3.23,1.88-6.44,2.83-9.66
		c0.74-2.51,2.98-4.12,5.57-4.04c1.59,0.05,3.19,0.02,4.78,0.01c2.75-0.02,4.67,1.57,5.43,3.89c0.98,2.96,1.77,5.98,2.63,8.98
		c0.38,1.35,0.72,2.71,1.06,4.08c0.24,0.94-0.27,2.12-1.01,2.39c-1.15,0.4-2.11-0.05-2.47-1.29c-0.82-2.81-1.57-5.64-2.35-8.45
		c-0.23-0.83-0.46-1.65-0.72-2.47c-0.08-0.25-0.27-0.47-0.42-0.7C56.08,36.33,55.96,36.38,55.83,36.43z"/>
	<path class="st1" d="M56.14,24.52c-0.01,2.5-2.1,4.66-4.55,4.61c-2.4-0.05-4.54-1.8-4.5-4.62c0.04-2.91,1.76-4.57,4.57-4.63
		C54.17,19.82,56.12,21.82,56.14,24.52z"/>
</g>
</svg>
