<?xml version="1.0" encoding="UTF-8"?><svg id="a" xmlns="http://www.w3.org/2000/svg" viewBox="0 0 94.12 100"><defs><style>.b{fill:#3347d9;}.c{fill:#fefefe;}</style></defs><path class="c" d="M0,100V0H94.12V100H0ZM37.82,34.17v1.73c0,17.79,0,35.57,0,53.36,0,2.8,1.73,4.57,4.44,4.57,2.61,0,4.35-1.8,4.35-4.51,0-10.34,0-20.68,0-31.02,0-.28,.04-.56,.06-.86h1.11v1.67c0,9.7,0,19.4,.01,29.11,0,.86,.07,1.75,.31,2.57,.48,1.63,1.6,2.76,3.29,3,1.72,.25,3.29-.14,4.44-1.68,.9-1.21,1.02-2.57,1.02-3.97,.01-17.44,0-34.89,0-52.33v-1.6h1.17v1.52c0,6.08,0,12.15,0,18.23,0,.8,.08,1.53,.66,2.15,.86,.93,2.76,1.36,4.03,.81,1.25-.54,1.76-1.61,1.76-2.9,.02-7.64,.1-15.29-.04-22.93-.05-2.72-1.26-5.03-3.58-6.72-1.97-1.43-4.13-1.97-6.47-1.99-4.25-.03-8.5-.03-12.75,0-1.25,.01-2.5,.23-3.75,.27-2.86,.08-4.72,1.87-6.33,3.86-.91,1.12-1.41,2.56-1.4,4.15,.05,7.84,.02,15.68,.02,23.52,0,.44-.08,.93,.08,1.31,.57,1.36,3.34,2.1,4.69,1.34,1.35-.76,1.67-1.99,1.67-3.4,0-6.17,0-12.35,0-18.52,0-.23,.05-.47,.08-.73h1.09ZM54.54,13.69c.36-3.69-3.11-7.18-6.88-7.31-5.07-.18-7.8,3.94-7.74,6.94,.1,4.59,3.25,7.28,7.66,7.55,3.73,.24,7.35-3.58,6.96-7.18Z"/><path class="b" d="M37.82,34.17h-1.09c-.03,.26-.08,.5-.08,.73,0,6.17,0,12.35,0,18.52,0,1.41-.32,2.64-1.67,3.4-1.35,.76-4.12,.02-4.69-1.34-.16-.38-.08-.87-.08-1.31,0-7.84,.02-15.68-.02-23.52,0-1.59,.49-3.03,1.4-4.15,1.61-2,3.47-3.79,6.33-3.86,1.25-.03,2.5-.26,3.75-.27,4.25-.03,8.5-.04,12.75,0,2.34,.02,4.5,.55,6.47,1.99,2.32,1.7,3.54,4.01,3.58,6.72,.14,7.64,.06,15.29,.04,22.93,0,1.29-.52,2.36-1.76,2.9-1.27,.55-3.17,.12-4.03-.81-.57-.62-.66-1.35-.66-2.15,.02-6.08,0-12.15,0-18.23v-1.52h-1.17v1.6c0,17.44,0,34.89,0,52.33,0,1.4-.12,2.76-1.02,3.97-1.15,1.54-2.72,1.93-4.44,1.68-1.69-.24-2.81-1.37-3.29-3-.24-.82-.31-1.71-.31-2.57-.02-9.7-.01-19.4-.01-29.11v-1.67h-1.11c-.02,.29-.06,.57-.06,.86,0,10.34,0,20.68,0,31.02,0,2.71-1.74,4.51-4.35,4.51-2.72,0-4.44-1.76-4.44-4.57,0-17.79,0-35.57,0-53.36v-1.73Z"/><path class="b" d="M54.54,13.69c.39,3.6-3.23,7.42-6.96,7.18-4.42-.28-7.56-2.96-7.66-7.55-.06-3,2.66-7.12,7.74-6.94,3.77,.14,7.24,3.62,6.88,7.31Z"/></svg>